<?xml version="1.0" encoding="iso-8859-1"?>
<!-- Uploaded to: SVG Repo, www.svgrepo.com, Generator: SVG Repo Mixer Tools -->
<!DOCTYPE svg PUBLIC "-//W3C//DTD SVG 1.1//EN" "http://www.w3.org/Graphics/SVG/1.1/DTD/svg11.dtd">
<svg fill="#e5ffd5" height="500px" width="500px" version="1.1" id="Capa_1" xmlns="http://www.w3.org/2000/svg" xmlns:xlink="http://www.w3.org/1999/xlink"
	 viewBox="0 0 58 58" xml:space="preserve">
<path d="M44.391,5H13.609L0.579,17.027L0,17.061v0.501V34v2.045V53l58-0.023V36.022V34V18.095v-0.534L44.391,5z M14.391,7h29.218
	l10.835,10.002l-16.463,0.011l-0.164,0.799C36.967,21.977,33.258,25,29,25c-4.244,0-7.95-3.034-8.813-7.214l-0.165-0.798
	L3.56,16.998L14.391,7z M56,50.978L2,50.999V36.044l16.437-0.007c1.347,4.636,5.658,7.918,10.563,7.918
	c4.92,0,9.236-3.286,10.572-7.926L56,36.023V50.978z M20.546,36.037l16.917-0.007C36.2,39.526,32.827,41.955,29,41.955
	C25.187,41.955,21.819,39.529,20.546,36.037z M37.981,34l-0.006,0.03L20.03,34.037L20.022,34H2v-15l16.424-0.011
	C19.763,23.677,24.087,27,29,27c4.928,0,9.254-3.313,10.582-7.988L56,19v15H37.981z"/>
</svg>
