<?xml version="1.0" encoding="iso-8859-1"?>
<!-- Uploaded to: SVG Repo, www.svgrepo.com, Generator: SVG Repo Mixer Tools -->
<svg height="800px" width="800px" version="1.1" id="Capa_1" xmlns="http://www.w3.org/2000/svg" xmlns:xlink="http://www.w3.org/1999/xlink" 
	 viewBox="0 0 401.374 401.374" xml:space="preserve">
<g>
	<path style="fill:#010002;" d="M216.548,78.922l48.463-59.347l100.282,81.895l-67.906,83.155c-2.845,3.479-2.325,8.6,1.154,11.437
		c1.512,1.236,3.333,1.837,5.137,1.837c2.357,0,4.698-1.016,6.3-2.991l73.043-89.455c2.845-3.479,2.325-8.6-1.154-11.437
		L269.001,1.838c-1.674-1.366-3.837-2.016-5.958-1.796c-2.146,0.228-4.113,1.284-5.479,2.951l-53.608,65.646
		c-2.845,3.479-2.325,8.6,1.154,11.437C208.582,82.921,213.711,82.392,216.548,78.922z"/>
	<path style="fill:#010002;" d="M219.425,325.981c-2.829-3.479-7.958-4.007-11.437-1.154c-3.479,2.837-3.991,7.958-1.154,11.437
		l50.722,62.119c1.366,1.666,3.333,2.731,5.479,2.951c0.268,0.024,0.545,0.041,0.821,0.041c1.861,0,3.682-0.642,5.145-1.837
		l112.873-92.178c3.479-2.837,3.991-7.958,1.154-11.437l-73.425-89.918c-2.837-3.479-7.958-4.016-11.437-1.154
		c-3.479,2.837-3.991,7.958-1.154,11.437l68.272,83.627L265.01,381.8L219.425,325.981z"/>
	<path style="fill:#010002;" d="M132.376,399.529c1.512,1.236,3.333,1.837,5.137,1.837c2.357,0,4.698-1.016,6.3-2.991l52.129-63.834
		c2.845-3.479,2.325-8.6-1.154-11.437c-3.487-2.853-8.616-2.325-11.437,1.154l-46.983,57.534L36.085,299.905l66.898-81.92
		c2.845-3.479,2.325-8.6-1.154-11.437c-3.495-2.853-8.616-2.325-11.437,1.154l-72.044,88.219c-1.366,1.666-2.008,3.812-1.796,5.958
		s1.276,4.113,2.943,5.479L132.376,399.529z"/>
	<path style="fill:#010002;" d="M92.79,196.607c1.601,1.967,3.942,2.991,6.3,2.991c1.805,0,3.625-0.602,5.137-1.837
		c3.479-2.837,3.991-7.958,1.154-11.437l-69.296-84.862l100.29-81.887l46.983,57.534c2.829,3.463,7.95,3.999,11.437,1.154
		c3.479-2.845,3.991-7.958,1.154-11.437L143.821,3.001c-2.837-3.471-7.958-4.007-11.437-1.154L19.503,94.016
		c-1.666,1.366-2.731,3.333-2.943,5.479c-0.211,2.146,0.431,4.292,1.796,5.958L92.79,196.607z"/>
</g>
</svg>