<svg xmlns="http://www.w3.org/2000/svg" width="24" height="24" fill="none"><path d="M10.947857 20.27538c-.212372-.198887-.234143-.248818-.307697-.705684-.04353-.27041-.11648-.578615-.1621-.684899-.346358-.806928-1.496051-1.283472-2.332776-.96693-.178463.06752-.47278.223407-.654039.346427-.399022.270817-.586324.319526-.800908.208281-.088617-.04594-.432728-.362203-.764692-.702803-.827835-.849374-.854344-1.021905-.267178-1.73884.41978-.512554.499924-.692166.499204-1.11876-.00105-.621137-.398424-1.183792-.932976-1.321029-.130076-.0334-.425872-.07742-.657324-.09783-.375665-.03313-.444565-.05856-.642093-.237017l-.22127-.199905v-1.995754l.186693-.186694c.157772-.157772.25282-.196837.613555-.252173.764578-.117285.984818-.207132 1.279195-.521844.365934-.391213.453228-.615567.45453-1.168184.00124-.527228-.063827-.686077-.479277-1.170035-.338261-.39404-.4566-.623321-.4566-.884661 0-.307618.10482-.46065.733007-1.070155.556849-.540288.581183-.55648.836299-.55648.315835 0 .456962.068407.94199.456599.551283.441218.647198.480508 1.170036.479277.552617-.0013.776971-.088596 1.168184-.45453.314712-.294377.404559-.514617.521844-1.279195.05534-.360735.0944-.455783.252173-.613555l.186694-.186694h1.995754l.199905.221271c.178454.197528.203888.266428.237017.642093.02041.231452.06443.527248.09783.657324.137238.534552.699893.931926 1.32103.932976.427292.000722.60609-.079331 1.123362-.502965.721533-.590916.874207-.567286 1.731167.267945.34229.33361.659933.67907.705874.767686.106095.20465.05992.421924-.151786.714172-.387183.534491-.484557.801222-.484839 1.3281-.000228.449015.01686.52465.199369.881747.138723.271424.288963.463261.49241.628744.29042.236224.396546.274517 1.183695.427102.244101.04732.391192.116454.542211.254852l.207239.189921v.997204c0 .916717-.0092 1.007373-.114016 1.12319-.181806.200893-.388178.280357-.867334.333964-.515293.05765-.813673.192548-1.113031.503202-.305714.317251-.4427.65883-.4442 1.10763-.0016.468781.118161.828022.376582 1.129928.240156.280568.328849.542334.241897.713926-.08805.173753-1.36155 1.455119-1.54042 1.549931-.200843.106459-.441124.03412-.741953-.223381-.301906-.258421-.661147-.378148-1.129928-.376582-.4488.0015-.790379.138486-1.10763.4442-.310654.299358-.445552.597738-.503203 1.113031-.059.527359-.158222.745792-.40793.898048-.16081.09805-.290788.111438-1.083862.111626l-.901141.000213zm2.28766-4.863191c1.023135-.34924 1.883829-1.210572 2.226715-2.228366.15742-.467271.213155-1.339021.117459-1.837196-.232517-1.210446-1.174869-2.239967-2.452734-2.679617-.408092-.140405-1.551571-.149032-2.007121-.01514-1.128549.331687-2.084588 1.287725-2.416275 2.416275-.062556.212844-.090734.534826-.089908 1.027349.00102.609877.02178.775653.13855 1.106541.3736 1.05866 1.364899 1.991719 2.435681 2.29258.457729.128609 1.559293.08427 2.047633-.08242z" style="fill:#e5ffd5;stroke-width:.152511"/></svg>
