<?xml version="1.0" encoding="utf-8"?>
<!-- Svg Vector Icons : http://www.onlinewebfonts.com/icon -->
<!DOCTYPE svg PUBLIC "-//W3C//DTD SVG 1.1//EN" "http://www.w3.org/Graphics/SVG/1.1/DTD/svg11.dtd">
<svg xmlns="http://www.w3.org/2000/svg" xmlns:xlink="http://www.w3.org/1999/xlink" version="1.1" x="0px" y="0px" viewBox="0 0 256 256" enable-background="new 0 0 256 256" xml:space="preserve">
<metadata> Svg Vector Icons : http://www.onlinewebfonts.com/icon </metadata>
<g><g><path fill="#ffffff" d="M48.4,237.4C27.2,237.4,10,220.2,10,199V57c0-21.2,17.2-38.4,38.4-38.4h36.5c6.3,0,11.5,5.1,11.5,11.5l0,0c0,6.4-5.1,11.5-11.5,11.5H50.3C41.3,44.2,35.6,50,33,59v138.2c2.6,9,8.3,14.7,17.3,17.3h138.2c9-2.6,14.7-8.3,17.3-17.3v-40.3c0-6.4,5.1-11.5,11.5-11.5l0,0c6.4,0,11.5,5.2,11.5,11.5V199c0,21.2-17.2,38.4-38.4,38.4H48.4z M182.7,122.2c-2.4,0-4.3-0.5-5.8,0c-4.7-3.6-7.4-8-5.8-11.5V99.2c-42.1-2.9-88.9,37.4-99.9,74.8c-2.4-8.2-3.8-16.9-3.8-25.9c0-50.1,52.7-103.6,103.6-106.5V30.1c-1.6-3.5,1.1-7.9,5.8-11.5c1.4,0.5,3.4,0,5.8,0c2.3,0,5,0.9,5.8,0L240.9,60c3.2,2.4,5.1,6.3,5.1,10.4s-1.9,7.9-5.1,10.4l-52.4,41.5C187.7,121.3,185,122.2,182.7,122.2z"/></g></g>
</svg>
